<svg xmlns="http://www.w3.org/2000/svg" xmlns:xlink="http://www.w3.org/1999/xlink" width="203" height="134" fill="none" xmlns:v="https://vecta.io/nano"><style><![CDATA[.B{fill:#ab6377}.C{opacity:.3}.D{fill:#f6f4ea}.E{opacity:.2}.F{fill:#65637d}.G{opacity:.5}.H{fill:#81ceff}.I{fill:#1a0d2d}.J{fill:#1b0a37}.K{fill:#c5cfea}.L{fill:#ffd8ba}]]></style><path d="M152.777 98.959l-.008-.009c-.262.422-.127-.042 0 0-1.369.19-3.786-.266-5.451-.101-.008 0 0 .291-.173 0-1.023.021-1.821-.291-2.041-.299.009-.008.009-.021.009-.021-.051.008-.072.021-.072.021.021.008.042.021.063.021v.008l-.029.19-3.389.282-1.526 9.675v.008c-1.136 6.206-2.4 11.451-3.021 12.163-.169.198-.663.379-1.39.535-.029.009-.072.022-.114.022a12.36 12.36 0 0 1-1.158.21c-1.694.274-4.01.472-6.473.628-6.169.388-13.276.443-13.813.127-.169-.093-.41-.776-.684-1.88a1.05 1.05 0 0 0-.043-.169c0-.008 0-.021-.008-.029l-.169-.776a77.51 77.51 0 0 1-.486-2.374l-.41-2.31-.727-4.789c-.431-3.035-.832-6.324-1.115-9.473l-6.558.19-2.315.063c.536 4.945 1.293 9.916 2.116 14.401l.938 4.768c.043.253.093.493.148.734v.008c.875 4.056 1.737 7.365 2.434 9.389v.008c.009.03.021.063.03.093.072.198.135.4.211.569.338.902.63 1.417.841 1.48.515.156 1.686.232 3.296.24h.05c3.486.021 9.013-.232 14.527-.62 8.569-.611 17.096-1.564 17.815-2.331 1.085-1.155 6.042-16.248 8.746-30.725l-.042.063-.009.009z" fill="url(#A)"/><path d="M141.681 99.052l-.536.051-5.548.379-1.15 7.993a1.74 1.74 0 0 1-.05.253l-.317 1.901-.883 4.684-.621 2.837-.241 1.008v.008l-.423 1.556c0 .008-.008.029-.008.042l-.051.177c-.241.788-.452 1.311-.621 1.501-.283.325-1.496.62-3.233.852-6.262.86-19.318 1.125-20.053.704-.199-.114-.495-.987-.833-2.387a19.58 19.58 0 0 0-.169-.691c-.295-1.29-.621-2.922-.946-4.768a193.37 193.37 0 0 1-.833-5.072v-.029c-.452-2.993-.874-6.185-1.178-9.245l-2.316.063-6.706.156c.6 5.071 1.441 10.168 2.337 14.759l.959 4.591c.072.359.156.704.232 1.05 1.002 4.368 1.978 7.867 2.725 9.831a1.19 1.19 0 0 0 .084.211c.36.915.651 1.438.875 1.501 2.138.599 14.709-.072 24.089-1.02 5.54-.569 9.968-1.227 10.487-1.788.41-.43 1.293-2.69 2.371-6.092.008-.021.021-.042.021-.063.008-.029.021-.05.021-.084.072-.211.148-.43.211-.649l.389-1.282v-.008l.254-.852c.388-1.311.777-2.732 1.179-4.233.008-.008.008-.021.008-.029a143.04 143.04 0 0 0 1.242-4.937c.021-.063.03-.114.043-.147s.021-.072.029-.114c.009-.009.009-.021.009-.03l1.064-4.747c-.008 0-.008-.008 0-.021.558-2.668 1.065-5.4 1.483-8.098l-3.388.282-.009-.004zm3.359-.506a.22.22 0 0 0 .064.021v-.021l.008-.021c-.05.008-.072.021-.072.021z" fill="url(#B)"/><path d="M135.597 99.482l5.548-.379-1.906 9.81-2.18 8.415-.064.24-1.25 3.866c-.651 1.838-1.213 3.048-1.568 3.415-1.906 1.965-16.509 4.726-26.633 5.999-.148.021-.295.03-.431.051-2.243.274-4.242.472-5.81.569-.747.05-1.398.072-1.935.072-1.631-.009-17.172-15.283-29.109-30.312l.431.177 24.275-.379 6.706-.156 2.316-.064 6.557-.189 25.057-1.134h-.004z" fill="url(#C)"/><path d="M106.611 132.871s18.731-.898 24.329-2.585c5.553-1.673 11.282-17.377 11.544-18.503s-.82-3.41-.82-3.41-3.646 1.096-10.694 1.505c-7.166.413-25.817.173-25.817.173l2.675 7.217s25.914-.464 27.038.08c1.119.544-.926 6.826-2.337 8.107s-24.925 3.52-24.925 3.52l-.993 3.9v-.004z" style="mix-blend-mode:multiply" class="B"/><g style="mix-blend-mode:multiply" class="E B"><path d="M99.364 131.539s-3.892-14.427-3.228-15.46 38.565-1.88 40.167-1.77c1.593.109-.44 8.933-2.793 10.666s-34.141 6.564-34.141 6.564h-.004z"/></g><path d="M94.577 120.569l34.927-2.083c6.537-.674 7.732-1.222 7.732-1.222l-1.876 2.314-21.727.763c-11.336.245-19.538 1.733-19.538 1.733l.477-1.505h.004z" fill="#4f0e0a"/><path d="M110.236 120.523s11.345.122 15.136-.084l9.469-.793-10.978.341c-2.332-.016-13.627.532-13.627.532v.004z" fill="#8b3e29"/><path d="M141.293 116.901c-.389-.341-2.299 1.223-2.679 3.365-.38 2.124.304 3.735.579 3.781.27.047 4.923-4.654 2.104-7.146h-.004z" class="J"/><path d="M141.293 116.901c-.706-.084-2.066 1.122-2.092 3.019-.025 1.88 1.627 1.311 2.561.156s.038-3.116-.469-3.175z" style="mix-blend-mode:multiply" class="B"/><path d="M138.614 120.266c.241-.561 1.445 2.204 1.407 2.647s-.79 1.058-.951 1.046-1.048-2.306-.456-3.689v-.004z" fill="#3a294e"/><path d="M131.371 105.013s1.982 2.285 3.199 2.496 4.432-1.48 4.432-1.48-2.442 1.412-3.524 1.716-3.042-.493-4.107-2.732z" fill="#685b7f"/><path d="M138.926 123.752c-.164-.405 1.505-.923 1.505-.923s-1.374 2.027-1.505.923z" class="F"/><g style="mix-blend-mode:multiply" class="C"><path d="M142.197 116.185c-.676-.523 1.386-11.193 2.603-12.336s6.418-1.425 6.849-1.328-2.81 13.01-3.735 15.363c-.921 2.335-5.717-1.699-5.717-1.699z" fill="#af7fb5"/></g><path d="M144.242 98.529l.093-.008c-.989 4.191-2.421 8.508-3.655 9.853-2.514 2.774-46.424 2.184-46.424 2.184l-.862-9.161c-.008-.009-.008-.021-.008-.03 27.402-.957 49.289-2.711 50.857-2.837z" fill="url(#D)"/><path d="M145.159 89.2c-.042 0-.135-.029-.275-.063a1.59 1.59 0 0 1 .275.063z" fill="url(#E)"/><path d="M144.242 98.529c-17.709 2.471-44.603 2.825-50.849 2.867l-1.327.008 1.314-.042c27.401-.957 49.289-2.711 50.857-2.837l.004.004z" fill="url(#F)"/><g style="mix-blend-mode:multiply" class="C"><path d="M121.822 102.842c-2.468.797-3.799 1.783-2.438 2.512 2.328 1.248 4.124 3.019 8.201 2.083l2.236-.493c3.562-.797 7.128-1.729 5.514-3.571 0 0-1.623-2.31-7.162-1.783l-2.578.35c-1.386.24-2.691.556-3.773.906v-.004z" fill="#4f2a6f"/></g><g style="mix-blend-mode:multiply" class="G"><path d="M125.595 101.935l-.532.148s2.81-.472 5.349-.122c2.518.35 4.585 1.062 3.942 2.462-.655 1.387-4.538 2.521-4.538 2.521 3.562-.797 7.129-1.729 5.514-3.571 0 0-1.622-2.31-7.162-1.783l-2.577.35.004-.005z" fill="#4f2a6f"/></g><path d="M92.54 129.022c-1.17.219-32.679-2.26-34.657-2.732-1.137-.274-5.294-10.725-8.062-23.613l43.027.253c1.158 14.283.41 25.953-.304 26.092h-.004z" fill="url(#G)"/><path d="M49.745 102.353l.072.324h-.6l.528-.324z" fill="url(#H)"/><path d="M96.943 103.065c.431 9.106-.063 19.557-.917 20.472-.537.556-5.117.4-10.318-.03l-.114-.008c-7.001-.114-21.812-1.91-22.707-2.437-.82-.472-4.348-9.485-7.158-18.36l-2.392-.021c4.453 13.845 10.424 27.213 11.738 27.719 1.914.713 11.273 1.817 20.582 2.614 9.947.852 19.834 1.353 20.548.67 1.065-1.02 3.883-16.02 4.022-30.501l-13.284-.114v-.004z" fill="url(#I)"/><path d="M100.889 103.862l-4.474.367-6.444-.085c.389 8.727-.021 18.128-.82 18.993-.275.282-1.559.387-3.444.366l-.114-.008c-7.002-.114-21.812-1.91-22.707-2.437-.79-.464-4.094-8.823-6.854-17.381l-9.304-.127c4.525 13.394 10.276 25.965 11.548 26.458 2.485.936 16.779 2.386 27.381 3.006 6.304.367 11.316.464 11.823-.029 1.065-1.029 3.55-15.093 3.41-29.115v-.008z" fill="url(#J)"/><path d="M62.878 121.058c.896.531 15.714 2.319 22.712 2.437-7.04-.586-15.19-1.653-15.845-2.045-.786-.464-4.073-9.013-6.773-17.651l-6.959-.194c2.759 8.57 6.076 16.994 6.866 17.453z" fill="url(#K)"/><path d="M57.148 103.651c1.099 2.989 2.362 5.687 3.456 6.168 7.327 3.195 29.497 3.347 29.497 3.347.245-2.744.135-6.286-.08-9.481-10.952.122-21.841.35-32.873-.034z" fill="url(#L)"/><g fill="#ab6363"><path d="M57.148 103.651l.08.219s13.149.245 23.459-.075c-7.821.088-15.642.126-23.535-.148l-.004.004z" style="mix-blend-mode:multiply"/><path d="M56.65 102.256l.499 1.395c7.893.274 15.714.236 23.535.148 3.858-.118 7.323-.317 9.545-.637 0 0-17.552.852-33.579-.906zm-10.023 1.011l9.186.527.291-.181-7.606-.392-1.876.051.004-.005z" style="mix-blend-mode:multiply"/><path d="M56.65 102.256l-.82.775-7.331.19 7.606.392.837-.518-.291-.835v-.004z" style="mix-blend-mode:multiply"/></g><path d="M60.216 109.557s3.055 5.076 7.411 7.551c4.335 2.462 21.651.249 22.01-.304s.461-3.638.461-3.638-15.055-.936-29.886-3.609h.004z" style="mix-blend-mode:multiply" class="B"/><path d="M62.878 121.058l7.099.059c2.561.076 19.171 2.024 19.171 2.024s-.287.885-8.159.51-18.106-2.589-18.106-2.589l-.004-.004z" fill="url(#M)"/><g style="mix-blend-mode:multiply" class="C"><path d="M99.148 132.508c-.875-.577.592-12.761 2.286-14.519 1.703-1.766 7.699-2.787 8.126-2.656s-2.075 14.532-3.372 16.416c-1.289 1.876-7.04.759-7.04.759z" fill="#af7fb5"/></g><path d="M93.715 133.094s4.745-5.404 6.008-10.417c0 0-.046 8.929-.57 9.831s-5.434.586-5.434.586h-.004z" fill="#332049"/><path d="M55.534 125.531s-3.951-10.303-6.697-22.289l-2.949-.223c3.638 10.818 8.561 20.522 9.646 22.512z" style="mix-blend-mode:soft-light" class="H"/><g style="mix-blend-mode:soft-light" class="C D"><path d="M102.085 118.398c-.655.906-1.462 1.847.499 1.737s1.449 1.535.756 2.386-1.221-4.022-2.113-.211-1.491 9.106-.401 9.76 3.139 1.964 4.428-1.417.123-2.217.249-3.807.727 2.749 1.775-.101 1.631-8.195 1.217-9.468-5.666.101-6.406 1.129l-.004-.008z"/></g><g style="mix-blend-mode:soft-light" class="C D"><path d="M102.685 106.552c-1.348-.978-.11 3.36-.65 5.973s.477 1.324 1.085 1.349 1.758-4.856 2.869-2.74 3.368 2.487 3.051-2.276-6.355-2.306-6.355-2.306z"/></g><g style="mix-blend-mode:soft-light" class="E D"><path d="M97.412 104.966c-1.906-.611-3.08 1.223-4.863 2.268s.541 3.559-.346 10.451-3.832 14.95.338 11.332 5.603-1.188 6.558-10.813-.925-12.989-1.69-13.233l.004-.005z"/></g><g style="mix-blend-mode:soft-light" class="C D"><path d="M62.565 123.103c-2.983-1.278-2.611 2.913-3.266 4.966s4.576 1.438 5.18 1.172-2.1-1.092.249-1.627 3.748-.253 3.055.915 3.063 2.424 5.624 1.728 7.466-3.343 5.611-4.566-9.085-2.862-11.117-2.984-5.337.4-5.337.4v-.004z"/></g><g fill="#7e687f"><path d="M110.227 103.179s-29.155-2.66-39.422-2.905-24.076 3.272-24.076 3.272l53.511 2.369c5.045-.106 9.993-2.736 9.993-2.736h-.005z"/><path d="M104.43 104.448s33.989-2.024 48.339-5.501c0 0-28.141-1.842-40.606-1.218l-46.175 2.58s31.99 4.347 38.447 4.14h-.005z"/></g><path d="M65.984 101.4s33.119 2.251 36.951 1.935l36.735-3.023s-22.694-1.509-30.6-1.467-43.086 2.551-43.086 2.551v.004z" class="I"/><path d="M98.32 42.285l12.062-.672s1.218-2.182 4.045-3.403 10.968-2.197 13.671-1.15 5.852 8.686 5.852 8.686l-27.661-2.947c.22-.091-7.965-.514-7.965-.514h-.004z" fill="#68b3db"/><path d="M115.29 54.06c-1.067.25-2.123.803-3.155 1.693-4.974 4.301-9.562 17.206-8.694 24.584.367 3.123 2.146 8.591 4.123 13.797l4.605-3.544c-1.917-5.183-3.621-10.596-3.966-13.699-.739-6.544 2.805-17.419 7.091-22.831h-.004z" fill="url(#N)"/><path d="M148.163 68.582l-13.68 3.071c-.51-3.989-1.129-7.593-1.795-9.739-2.675-8.692-9.642-14.897-15.688-9.68-.573.5-1.152 1.111-1.71 1.822-1.067.25-2.119.803-3.15 1.693-4.979 4.305-9.563 17.201-8.698 24.592.347 2.976 1.981 8.076 3.85 13.063l-1.576 1.262c-1.486-3.887-2.858-7.936-3.885-11.769-3.908-14.605 2.117-32.868 9.924-41.665h.009c.368-.44.758-.851 1.138-1.22 1.251-1.238 11.224-3.21 14.081-2.825 17.829 2.405 21.001 26.994 21.18 31.396z" fill="url(#O)"/><path d="M105.69 86.424l2.626 7.145c7.304-5.549 14.456-11.609 21.663-17.605-.608-4.17-1.28-7.578-1.28-7.578S104.945 84.13 105.69 86.42v.004z" fill="url(#P)"/><path d="M105.742 86.016s.127-.698 3.84-4.318c3.721-3.628 18.849-14.459 18.849-14.459l.267 1.148s-16.715 11.782-19.651 14.507l-3.305 3.118v.004z" fill="url(#Q)"/><path d="M103.339 78.13c.193 3.983 6.248 3.573 6.248 3.573l18.849-14.459s-3.962-16.328-13.424-13.685c-9.554 2.669-11.776 22.356-11.673 24.572z" style="mix-blend-mode:multiply" class="B"/><g style="mix-blend-mode:soft-light" class="E D"><path d="M116.2 38.665s7.114-.981 11.965 5.365c4.746 6.207 5.332 8.095 6.306 9.529.97 1.426 10.32 4.233 10.822 3.597s-2.606-11.641-10.084-16.598c-5.55-3.678-15.351-4.551-19.009-1.888v-.004z"/></g><g style="mix-blend-mode:multiply" class="G"><path d="M99.672 62.382c-1.264 3.775 2.142 8.878 2.466 9.263s1.902-13.332 10.449-17.687c8.513-4.337 12.243 1.683 16.099 11.01 3.751 9.07 5.584-3.52 4.934-9.351-.659-5.919-11.023-17.469-17.634-15.625-6.658 1.858-13.701 14.565-16.318 22.386l.004.004z" fill="#772781"/></g><path d="M117.941 76.099s2.1-2.157 5.371-4.928 4.884-3.017 4.884-3.017-1.274 1.471-4.526 3.933l-5.729 4.012z" class="F"/><path d="M99.242 79.307c-1.371-17.163 7.919-32.477 7.919-32.477S96.546 61.077 96.156 77.329c-.171 7.137 2.03 14.949 4.685 21.666l1.964-1.365c-1.634-5.72-3.07-12.155-3.563-18.323z" style="mix-blend-mode:soft-light" class="H"/><path d="M123.345 37.961c-1.428.141 1.465.993 5.717 1.804s1.789-2.547-5.717-1.804z" style="mix-blend-mode:soft-light" class="K"/><g style="mix-blend-mode:soft-light" class="C K"><path d="M136.935 48.249c-2.424-.077.254 3.419 1.09 3.472s3.994-3.312-1.09-3.472z"/></g><path d="M137.155 70.312l-2.913 2.758-4.253 3.375c-.577-4.509-1.291-8.691-2.05-11.082-2.263-7.167-7.48-12.63-12.649-11.304-1.067.25-2.119.803-3.15 1.693-4.979 4.305-9.563 17.201-8.698 24.592.371 3.122 2.149 8.578 4.122 13.788.01.016.019.041.02.062l-6.144 4.868c-1.666-4.182-3.211-8.586-4.359-12.726-4.211-15.261 6.349-36.883 14.67-45.102h.009c8.37-8.251 20.504 2.803 23.798 18.278.691 3.259 1.213 6.973 1.597 10.8z" fill="url(#R)"/><path d="M101.436 99.063s10.573-1.017 13.196-2.081 33.527-28.397 33.527-28.397-10.201.054-11.069.387-35.654 30.091-35.654 30.091z" class="I"/><path d="M92.023 68.509l42.534-2.055s-4.298-18.916-14.258-23.069c-7.681-3.2-38.807.229-38.807.229s7.951 9.146 10.535 24.895h-.004z" fill="url(#S)"/><path d="M134.557 66.453l-33.121 32.61-41.438 2.141 31.333-32.84 43.226-1.912z" fill="url(#T)"/><path d="M64.967 98.277l34.322-1.11 26.663-26.533-36.729 1.374-24.256 26.269z" fill="url(#U)"/><path d="M136.157 68.394s-3.624 3.358-4.298 3.593-40.888 3.103-40.888 3.103l3.267-4.083 41.919-2.608v-.004z" class="I"/><g style="mix-blend-mode:multiply" class="G B"><path d="M99.289 97.167l-2.201-25.399 28.864-1.133-26.663 26.533z"/></g><g style="mix-blend-mode:multiply" class="E B"><path d="M94.931 54.706c-.269-2.583 10.205 2.052 22.331 2.424 11.731.362 6.419 9.313-10.342 9.654-17.505.361-11.985-12.079-11.985-12.079h-.004z"/></g><g style="mix-blend-mode:soft-light" class="C L"><path d="M84.889 44.568s5.263.877 11.951 7.176c6.405 6.034 31.852 2.66 31.75 2.117s-2.292-9.073-11.004-10.248c-8.954-1.209-19.05-.81-32.7.956h.004z"/></g><path d="M87.281 60.968s17.081-.197 27.242-1.772c11.479-1.779 17.45-.873 17.45-.873l.154.816-18.296.796c-6.969.316-12.887 1.104-17.401 1.276-4.548.173-8.811.109-8.811.109l-.334-.351h-.004zm-13.264-13.68l36.294-2.071c11.177-.409 13.142.42 13.142.42l1.879 1.146s-11.268-1.532-20.185-.911c-9.039.631-22.449 2.554-24.162 2.653s-4.004.143-4.004.143l-2.964-1.38z" fill="#661f0a"/><path d="M96.956 47.34l12.351-.922 8.098-.408s-3.656-.63-9.825-.129c-5.887.474-10.623 1.463-10.623 1.463v-.004z" fill="#b0703f"/><path d="M121.588 58.685s2.415.499 5.437.619c2.996.117 4.986-.98 4.986-.98s-4.354-1.077-10.423.36z" style="mix-blend-mode:multiply" class="B"/><path d="M104.321 55.046c-4.325 1.188 4.616 3.432 8.872 2.64 4.226-.787-.213-5.017-8.872-2.64z" fill="url(#V)"/><g style="mix-blend-mode:multiply" opacity=".58"><path d="M104.07 55.459c-1.819.86 3.392 2.436 7.682 1.385 4.264-1.046-2.313-3.923-7.682-1.385z" fill="#904f81"/></g><path d="M103.574 56.31s2.345.727 6.159.698c3.777-.031 4.141.496 4.141.496s-1.104.619-4.493.428c-3.423-.189-5.803-1.623-5.803-1.623h-.004z" fill="#b5643f"/><path d="M91.859 75.701l-42.815 27.401c-2.546-9.268-4.381-19.832-3.579-28.798.819-9.232 25.386-48.579 45.865.096l.528 1.3z" fill="url(#W)"/><path d="M60.668 57.299c-1.092.255-2.173.818-3.229 1.735-5.088 4.399-9.784 17.6-8.895 25.146.375 3.198 2.193 8.787 4.219 14.113l4.711-3.625c-1.961-5.303-3.705-10.837-4.057-14.015-.755-6.691 2.87-17.819 7.252-23.353z" fill="url(#X)"/><path d="M97.615 71.995l-17.316 3.302c-.523-4.077-1.154-7.765-1.835-9.961-2.735-8.888-9.866-15.241-16.046-9.903-.584.509-1.176 1.137-1.75 1.866-1.091.26-2.169.818-3.22 1.734-5.092 4.408-9.78 17.596-8.899 25.155.359 3.043 2.028 8.263 3.941 13.362l-1.613 1.289c-1.525-3.974-2.922-8.119-3.974-12.04-4.001-14.938 2.161-33.617 10.145-42.617h.008c.38-.449.774-.873 1.166-1.247 1.28-1.265 11.483-3.282 14.404-2.891 18.237 2.457 24.805 27.451 24.989 31.95z" fill="url(#Y)"/><path d="M50.85 90.408l2.684 7.307L86.293 72.39c-.621-4.267-11.908-.433-11.908-.433S50.085 88.06 50.85 90.404v.004z" fill="url(#Z)"/><path d="M50.902 89.992s.13-.715 3.928-4.415c3.806-3.708 19.282-14.788 19.282-14.788l.273 1.177s-17.096 12.049-20.1 14.841l-3.378 3.19-.004-.004z" fill="url(#a)"/><path d="M48.443 81.922c.197 4.076 6.391 3.654 6.391 3.654l19.282-14.788s-4.052-16.704-13.731-13.999c-9.771 2.73-12.047 22.868-11.937 25.133h-.004z" style="mix-blend-mode:multiply" class="B"/><g style="mix-blend-mode:soft-light" class="E D"><path d="M61.599 41.557s7.278-1.006 12.237 5.491c4.855 6.35 5.456 8.283 6.453 9.746s5.895-1.007 6.409-1.656 1.992-6.571-5.656-11.646c-5.673-3.765-15.704-4.656-19.443-1.935z"/></g><g style="mix-blend-mode:multiply" class="G"><path d="M44.691 65.816c-1.294 3.861 2.19 9.083 2.522 9.476S49.156 61.658 57.901 57.2c8.707-4.435 12.525 1.724 16.467 11.263 3.837 9.277 5.71-3.602 5.05-9.563-.673-6.054-11.275-17.87-18.036-15.982-6.808 1.899-14.014 14.897-16.69 22.898z" fill="#772781"/></g><path d="M63.382 79.846s2.144-2.21 5.493-5.043 4.995-3.086 4.995-3.086-1.302 1.502-4.628 4.022l-5.864 4.103.004.004z" class="F"/><path d="M44.25 83.125c-1.403-17.554 8.099-33.22 8.099-33.22S41.492 64.481 41.089 81.1c-.176 7.302 2.076 15.288 4.794 22.164l2.01-1.398c-1.67-5.849-3.139-12.43-3.643-18.741z" style="mix-blend-mode:soft-light" class="H"/><path d="M68.908 40.837c-1.457.142 1.5 1.012 5.851 1.849s1.829-2.604-5.851-1.849zm6.069 2.5c-2.478-.079.46 1.721 1.317 1.777s3.886-1.614-1.317-1.777z" style="mix-blend-mode:soft-light" class="K"/><path d="M86.994 72.281c-1.683 1.597-6.942 4.463-6.942 4.463l-4.351 3.452c-.591-4.61-1.322-8.892-2.096-11.337-2.313-7.329-7.651-12.921-12.941-11.564-1.092.26-2.169.818-3.22 1.734-5.092 4.408-9.78 17.596-8.899 25.155.379 3.194 2.201 8.774 4.218 14.104.009.016.019.041.02.062l-6.282 4.98c-1.704-4.278-3.284-8.781-4.458-13.021-4.307-15.603 6.494-37.722 15.005-46.127h.009C70.604 31.908 85.831 63.98 86.994 72.285v-.004z" fill="url(#b)"/><path d="M46.5 103.335s10.813-1.042 13.498-2.129 37.617-29.211 37.617-29.211-10.433.057-11.322.395S46.5 103.331 46.5 103.331v.004z" class="I"/><path d="M75.886 49.806c-.74.525-1.215 5.672.457 8.141 1.658 2.448 3.937 2.342 4.268 1.832s.706-13.832-4.725-9.973z" class="J"/><path d="M75.886 49.806c-.821 1.386-1.072 5.121.737 6.675 1.796 1.542 2.987-2.276 2.854-5.11-.134-2.851-2.996-2.565-3.591-1.561v-.004z" style="mix-blend-mode:multiply" class="B"/><path d="M76.343 57.947c-.29-.927 3.657-1.181 4.046-.753s.19 2.443.006 2.756-3.332.288-4.052-2.003z" fill="#442c4e"/><path d="M78.776 59.978c.022-.162 1.493-.524 1.644-.476s.187.278.187.278.023.134-.557.293-1.278-.094-1.278-.094h.004z" class="F"/><path d="M45.888 103.263s2.862-2.316 3.434-3.167-3.486-25.818-3.304-31.246.425-7.495.425-7.495-5.515 10.97-5.352 20.636 4.797 21.272 4.797 21.272z" style="mix-blend-mode:soft-light" class="H"/><path d="M95.865 64.394l39.291-1.836c.52.249 1.078 5.236 1.001 5.831s-38.622 2.728-38.622 2.728l-1.67-6.723z" fill="url(#c)"/><path d="M103.697 77.239c-2.11-1.384-6.524-20.425-6.26-21.181s4.773-5.562 7.232-5.984 20.51-1.375 22.083-1.118c2.644.438 5.812 20.73 4.814 22.049-.573.754-18.089 2.541-20.307 2.505-1.855-.033-6.517 4.413-7.562 3.729z" fill="url(#d)"/><g style="mix-blend-mode:multiply" opacity=".63"><path d="M97.433 56.058c-.144-.525 6.157-6.071 7.232-5.984s6.898 22.737 6.214 23.201-6.884 4.507-7.186 3.964c-3.935-7.116-6.117-20.656-6.26-21.181z" fill="#770081"/></g><g style="mix-blend-mode:multiply" class="C"><path d="M104.787 50.853c-1.561-.887-5.811 3.957-6.654 5.429-.846 1.48 1.491 10.113 4.319 13.922 2.874 3.871 6.811-1.22 5.801-8.203-.988-6.794-3.14-10.966-3.466-11.148z" fill="#b62781"/></g><g style="mix-blend-mode:multiply" class="C"><path d="M111.259 73.509s4.852-1.838 10.245-2.808 9.865-.101 9.527.536-7.972 1.702-19.772 2.272z" fill="#b62781"/></g><g style="mix-blend-mode:soft-light" class="G L"><path d="M104.669 50.074s2.068.25 10.29-.231c8.259-.484 10.589-.153 11.092-.35l.506-.197s-10.139-.768-21.888.779z"/></g><g fill="#982c29"><path d="M123.819 58.56c.318 1.749-.173 4.288-1.845 5.137-.652.335-1.486.414-2.539.068l-.401-.149a2.11 2.11 0 0 1-.281-.13c-.056-.018-.126-.053-.182-.084-.616-.308-1.18-.694-1.658-1.136-2.669-2.361-3.338-6.225-.407-7.725.35-.181.749-.327 1.205-.434 1.795-.424 5.499 1.043 6.113 4.453h-.005z"/><path d="M121.974 63.693c.416 1.436.023 3.194-.955 3.102-.934-.081-1.676-1.51-1.921-2.807-.035-.129-.046-.259-.069-.381-.093-.886.061-1.624.574-1.695.37-.056.689-.021.977.088.71.244 1.174.914 1.394 1.693z"/></g><path d="M120.834 58.932c.159.921.1 2.072-.249 3.072-.237.704-.608 1.334-1.146 1.756-.102.085-.212.175-.336.231-.036-.129-.046-.26-.069-.381a2.04 2.04 0 0 1-.281-.13c-.056-.018-.126-.053-.182-.084-.616-.308-1.18-.694-1.658-1.136-2.67-2.361-3.339-6.225-.408-7.725 1.802.428 3.907 1.884 4.333 4.391l-.004.004z" fill="#5e002c"/><path d="M118.752 63.482c-.056-.018-.125-.053-.181-.084-.616-.308-1.18-.694-1.659-1.135.884-.017 1.484.502 1.844 1.215l-.004.004z" fill="#59002c"/><path d="M115.4 55.388c-.664.619-1.055 3.297 1.142 5.073 2.215 1.792 4.375-.946 3.725-2.839-.64-1.877-3.163-3.823-4.867-2.234z" style="mix-blend-mode:multiply" class="B"/><path d="M106.734 54.824c-1.235-.531-2.09 4.005.55 6.199 2.67 2.218 2.401-4.932-.55-6.199z" fill="#982c22"/><path d="M106.454 54.795c-.8-.016-1.155 2.972.263 4.394 1.427 1.429 2.235-.593 1.403-2.317-.824-1.716-1.107-2.065-1.67-2.076h.004z" fill="#b34377" style="mix-blend-mode:multiply"/><path d="M106.172 59.557c-.029-.775 2.406.492 2.617 1.368.148.609-1.495 1.014-2.617-1.368z" fill="#ff833d"/><g style="mix-blend-mode:multiply" class="C"><path d="M107.295 50.74c-1.851.216 1.052 3.397 2.764 6.788 1.736 3.441 3.108-3.185 8.014-3.823 4.914-.639 6.828 4.726 8.205 9.421 1.403 4.786 4.629-3.22 3.083-7.987-1.516-4.675-2.077-5.154-2.869-5.542s-7.028-.281-19.197 1.143z" fill="#d789ba"/></g><path d="M121.974 63.694l-2.269.148s-.621.19-.582.307.78 2.837 2.191 2.532.66-2.986.66-2.986z" fill="#ce6377" style="mix-blend-mode:multiply"/><path d="M103.697 77.239c.508.604 21.27-1.416 22.449-1.79s5.239-4.073 5.42-4.445c.176-.372-18.479 1.383-20.627 2.022s-7.237 4.212-7.237 4.212h-.005z" fill="#5e002c"/><g style="mix-blend-mode:soft-light" class="C L"><path d="M106.997 76.628c-1.192-.428 4.943-3.016 12.528-4.079s8.312.164 8.59.15-2.921 2.492-9.655 3.379-11.467.554-11.467.554l.004-.004z"/></g><path d="M97.723 58.116s-1.337 1.221-1.527 2.45 1.881 9.942 1.881 9.942l2.349-.24-2.702-12.152z" style="mix-blend-mode:multiply" class="B"/><path d="M133.111 54.207c-.499.353-.822 3.834.308 5.502 1.121 1.655 2.661 1.585 2.886 1.237s.478-9.351-3.194-6.742v.004z" class="J"/><path d="M133.111 54.207c-.556.939-.726 3.462.497 4.513 1.214 1.043 2.02-1.541 1.931-3.457-.093-1.929-2.025-1.734-2.428-1.056z" style="mix-blend-mode:multiply" class="B"/><path d="M133.419 59.709c-.195-.628 2.47-.799 2.734-.512s.126 1.653.005 1.865-2.254.193-2.739-1.353z" fill="#442c4e"/><path d="M135.064 61.085c.015-.111 1.01-.353 1.113-.324s.128.188.128.188.017.088-.375.2-.862-.064-.862-.064h-.004z" class="F"/><path d="M104.092 42.065s13.033.425 16.375 1.395c0 0-2.969-1.739-6.907-2s-9.472.605-9.472.605h.004z" fill="#68b3db"/><path d="M183.091 46.82l-70.633 54.488h13.723l75.88-18.163-18.97-36.325z" fill="url(#e)"/><path d="M.858 67.368l79.714 34.629 15.741 1.211-73.482-70.431L.858 67.368z" fill="url(#f)"/><defs><linearGradient id="A" x1="129.042" y1="134.017" x2="131.669" y2="97.454" xlink:href="#g"><stop stop-color="#625484"/><stop offset="1" stop-color="#675574"/></linearGradient><linearGradient id="B" x1="121.852" y1="134.58" x2="124.544" y2="97.126" xlink:href="#g"><stop stop-color="#161236"/><stop offset="1" stop-color="#361e47"/></linearGradient><linearGradient id="C" x1="105.698" y1="131.539" x2="105.698" y2="99.107" xlink:href="#g"><stop stop-color="#681c48"/><stop offset=".01" stop-color="#681d47"/><stop offset=".39" stop-color="#803636"/><stop offset=".73" stop-color="#8e452c"/><stop offset="1" stop-color="#934b29"/></linearGradient><linearGradient id="D" x1="118.86" y1="110.607" x2="118.86" y2="98.516" xlink:href="#g"><stop stop-color="#625484"/><stop offset="1" stop-color="#675574"/></linearGradient><linearGradient id="E" x1="145.019" y1="89.2" x2="145.019" y2="89.136" xlink:href="#g"><stop stop-color="#625484"/><stop offset="1" stop-color="#675574"/></linearGradient><linearGradient id="F" x1="118.154" y1="101.404" x2="118.154" y2="98.529" xlink:href="#g"><stop stop-color="#161236"/><stop offset="1" stop-color="#301741"/></linearGradient><linearGradient id="G" x1="71.633" y1="129.039" x2="71.633" y2="102.681" xlink:href="#g"><stop stop-color="#48001b"/><stop offset="1" stop-color="#702c11"/></linearGradient><linearGradient id="H" x1="49.521" y1="102.682" x2="49.521" y2="102.353" xlink:href="#g"><stop stop-color="#48001b"/><stop offset="1" stop-color="#702c11"/></linearGradient><linearGradient id="I" x1="68.868" y1="131.798" x2="76.966" y2="96.017" xlink:href="#g"><stop stop-color="#625484"/><stop offset="1" stop-color="#675574"/></linearGradient><linearGradient id="J" x1="43.544" y1="127.432" x2="99.539" y2="96.393" xlink:href="#g"><stop stop-color="#1d2048"/><stop offset=".4" stop-color="#1e1136"/><stop offset="1" stop-color="#2a1036"/></linearGradient><linearGradient id="K" x1="70.8" y1="123.495" x2="70.8" y2="103.605" xlink:href="#g"><stop stop-color="#403d5b"/><stop offset=".57" stop-color="#352349"/><stop offset="1" stop-color="#210633"/></linearGradient><linearGradient id="L" x1="52.889" y1="126.315" x2="102.074" y2="83.646" xlink:href="#g"><stop stop-color="#1d2048"/><stop offset=".4" stop-color="#1e1136"/><stop offset="1" stop-color="#2a1036"/></linearGradient><linearGradient id="M" x1="68.738" y1="123.092" x2="68.847" y2="121.185" xlink:href="#g"><stop stop-color="#524f6a"/><stop offset="1" stop-color="#796985"/></linearGradient><linearGradient id="N" x1="87.314" y1="111.542" x2="69.985" y2="91.32" xlink:href="#g"><stop stop-color="#403d5b"/><stop offset=".57" stop-color="#352349"/><stop offset="1" stop-color="#210633"/></linearGradient><linearGradient id="O" x1="105.231" y1="105.074" x2="76.013" y2="70.977" xlink:href="#g"><stop stop-color="#625484"/><stop offset="1" stop-color="#675574"/></linearGradient><linearGradient id="P" x1="87.29" y1="130.062" x2="95.475" y2="69.985" xlink:href="#g"><stop stop-color="#1d2048"/><stop offset=".4" stop-color="#1e1136"/><stop offset="1" stop-color="#2a1036"/></linearGradient><linearGradient id="Q" x1="96.495" y1="92.896" x2="95.637" y2="91.769" xlink:href="#g"><stop stop-color="#524f6a"/><stop offset="1" stop-color="#5a4668"/></linearGradient><linearGradient id="R" x1="75.624" y1="119.281" x2="91.143" y2="75.946" xlink:href="#g"><stop stop-color="#1d2048"/><stop offset=".4" stop-color="#1e1136"/><stop offset="1" stop-color="#2a1036"/></linearGradient><linearGradient id="S" x1="115.239" y1="126.882" x2="106.747" y2="42.143" xlink:href="#g"><stop stop-color="#681c48"/><stop offset=".01" stop-color="#681d47"/><stop offset=".39" stop-color="#803636"/><stop offset=".73" stop-color="#8e452c"/><stop offset="1" stop-color="#934b29"/></linearGradient><linearGradient id="T" x1="98.029" y1="99.368" x2="96.518" y2="68.114" xlink:href="#g"><stop stop-color="#48001b"/><stop offset="1" stop-color="#511611"/></linearGradient><linearGradient id="U" x1="96.081" y1="97.322" x2="94.845" y2="71.736" xlink:href="#g"><stop stop-color="#360014"/><stop offset="1" stop-color="#2a0211"/></linearGradient><linearGradient id="V" x1="109.61" y1="58.25" x2="109.054" y2="54.239" xlink:href="#g"><stop stop-color="#883411"/><stop offset=".99" stop-color="#48001b"/></linearGradient><linearGradient id="W" x1="69.737" y1="102.102" x2="67.247" y2="50.582" xlink:href="#g"><stop stop-color="#48001b"/><stop offset="1" stop-color="#702c11"/></linearGradient><linearGradient id="X" x1="15.028" y1="130.444" x2="-2.697" y2="109.76" xlink:href="#g"><stop stop-color="#403d5b"/><stop offset=".57" stop-color="#352349"/><stop offset="1" stop-color="#210633"/></linearGradient><linearGradient id="Y" x1="36.23" y1="124.068" x2="5.006" y2="87.631" xlink:href="#g"><stop stop-color="#625484"/><stop offset="1" stop-color="#675574"/></linearGradient><linearGradient id="Z" x1="19.331" y1="153.649" x2="29.643" y2="77.961" xlink:href="#g"><stop stop-color="#1d2048"/><stop offset=".4" stop-color="#1e1136"/><stop offset="1" stop-color="#2a1036"/></linearGradient><linearGradient id="a" x1="27.314" y1="107.67" x2="26.439" y2="106.52" xlink:href="#g"><stop stop-color="#524f6a"/><stop offset="1" stop-color="#5a4668"/></linearGradient><linearGradient id="b" x1="4.748" y1="138.962" x2="20.717" y2="94.368" xlink:href="#g"><stop stop-color="#1d2048"/><stop offset=".4" stop-color="#1e1136"/><stop offset="1" stop-color="#2a1036"/></linearGradient><linearGradient id="c" x1="116.206" y1="70.215" x2="115.874" y2="63.351" xlink:href="#g"><stop stop-color="#625484"/><stop offset="1" stop-color="#675574"/></linearGradient><linearGradient id="d" x1="119.039" y1="75.817" x2="108.737" y2="48.609" xlink:href="#g"><stop stop-color="#d65752"/><stop offset=".3" stop-color="#e56d3d"/><stop offset=".74" stop-color="#f88825"/><stop offset="1" stop-color="#ff931d"/></linearGradient><linearGradient id="e" x1="114.073" y1="100.501" x2="193.585" y2="69.422" xlink:href="#g"><stop stop-color="#ffae3a"/><stop offset="1" stop-color="#ffae3a" stop-opacity="0"/></linearGradient><linearGradient id="f" x1="81.857" y1="100.3" x2="15.186" y2="46.979" xlink:href="#g"><stop stop-color="#ffae3a"/><stop offset="1" stop-color="#ffae3a" stop-opacity="0"/></linearGradient><linearGradient id="g" gradientUnits="userSpaceOnUse"/></defs></svg>